<?xml version="1.0" encoding="utf-8"?>
<svg width="500" height="500" xmlns="http://www.w3.org/2000/svg">
  <g class="layer" transform="matrix(1.361796, 0, 0, 1.672918, -185.794139, -237.926523)">
    <title>Layer 1</title>
    <g fill="#000000" id="svg_1" transform="matrix(0.850927, 0, 0, -0.831181, 113.973798, 494.826588)">
      <path d="M 26.394 354.534 C 26.394 323.534 32.394 305.534 46.394 292.534 C 63.394 276.534 66.394 261.534 66.394 175.534 C 66.394 116.534 70.394 77.534 76.394 77.534 C 82.394 77.534 86.394 116.534 86.394 175.534 C 86.394 261.534 89.394 276.534 106.394 292.534 C 120.394 305.534 126.394 323.534 126.394 354.534 C 126.394 377.534 122.394 397.534 116.394 397.534 C 111.394 397.534 106.394 380.534 106.394 358.534 C 106.394 336.534 100.394 314.534 91.394 307.534 C 68.394 288.534 46.394 312.534 46.394 358.534 C 46.394 380.534 42.394 397.534 36.394 397.534 C 31.394 397.534 26.394 377.534 26.394 354.534 Z" id="svg_2" stroke="#ffffff" style="fill: rgb(255, 255, 255);"/>
      <path d="M 65.665 360.519 C 65.665 344.519 70.665 330.519 75.665 330.519 C 81.665 330.519 85.665 344.519 85.665 360.519 C 85.665 377.519 81.665 390.519 75.665 390.519 C 70.665 390.519 65.665 377.519 65.665 360.519 Z" id="svg_3" stroke="#ffffff" style="fill: rgb(255, 255, 255);"/>
      <path d="M 377.879 242.702 C 377.879 138.712 381.879 76.322 387.879 76.322 C 393.879 76.322 397.879 104.402 397.879 138.712 C 397.879 201.112 397.879 201.112 427.879 201.112 L 457.879 201.112 L 457.879 278.062 C 457.879 352.932 456.879 355.012 423.879 382.052 C 404.879 396.602 386.879 409.082 383.879 409.082 C 380.879 409.082 377.879 334.212 377.879 242.702 Z M 437.879 282.222 C 437.879 229.182 435.879 221.902 417.879 221.902 C 399.879 221.902 397.879 229.182 397.879 301.982 C 397.879 379.972 397.879 381.002 417.879 362.292 C 433.879 347.732 437.879 330.052 437.879 282.222 Z" id="svg_4" stroke="#ffffff" style="fill: rgb(255, 255, 255);"/>
      <g fill="#000000" id="svg_5" transform="matrix(1 0 0 1 0 0) matrix(0.869385 0 0 0.803116 29.9962 57.5886)">
        <g fill="#000000" id="svg_6" transform="matrix(0.71314, 0, 0, 1.133224, 62.599182, -39.225765)">
          <path id="svg_7" stroke="#ffffff" d="M 195 431 C 133 404 107 331 134 265 C 151 223 231 100 240 100 C 251 100 338 240 350 275 C 366 324 356 371 321 404 C 290 434 230 446 195 431 Z M 265 248 C 298 263 298 245 265 205 L 240 175 L 215 203 C 181 241 181 264 215 248 C 234 240 246 240 265 248 Z" style="fill: rgb(255, 255, 255);"/>
          <path d="m91,172c-44,-22 -60,-46 -45,-70c55,-91 406,-73 392,21c-3,22 -39,51 -75,62c-37,11 -30,-30 7,-44c36,-12 38,-26 8,-43c-31,-18 -245,-18 -275,0c-31,17 -29,31 7,43c19,7 30,18 30,30c0,23 -6,24 -49,1z" id="svg_8" stroke="#ffffff" style="fill: rgb(255, 255, 255);"/>
        </g>
      </g>
    </g>
  </g>
</svg>