<?xml version="1.0" encoding="utf-8"?>
<svg xmlns="http://www.w3.org/2000/svg" viewBox="0 0 500 500">
  <g transform="matrix(1.095018, 0, 0, -1.102265, -3.958784, 519.425354)" fill="#000000" stroke="none" style="">
    <path d="M 9.61 358.266 C 9.61 327.266 15.61 309.266 29.61 296.266 C 46.61 280.266 49.61 265.266 49.61 179.266 C 49.61 120.266 53.61 81.266 59.61 81.266 C 65.61 81.266 69.61 120.266 69.61 179.266 C 69.61 265.266 72.61 280.266 89.61 296.266 C 103.61 309.266 109.61 327.266 109.61 358.266 C 109.61 381.266 105.61 401.266 99.61 401.266 C 94.61 401.266 89.61 384.266 89.61 362.266 C 89.61 340.266 83.61 318.266 74.61 311.266 C 51.61 292.266 29.61 316.266 29.61 362.266 C 29.61 384.266 25.61 401.266 19.61 401.266 C 14.61 401.266 9.61 381.266 9.61 358.266 Z"/>
    <path d="M 49.61 362.76 C 49.61 346.76 54.61 332.76 59.61 332.76 C 65.61 332.76 69.61 346.76 69.61 362.76 C 69.61 379.76 65.61 392.76 59.61 392.76 C 54.61 392.76 49.61 379.76 49.61 362.76 Z"/>
    <path d="M 374.234 256.152 C 374.234 152.165 378.234 89.772 384.234 89.772 C 390.234 89.772 394.234 117.849 394.234 152.165 C 394.234 214.557 394.234 214.557 424.234 214.557 L 454.234 214.557 L 454.234 291.508 C 454.234 366.379 453.234 368.459 420.234 395.495 C 401.234 410.054 383.234 422.532 380.234 422.532 C 377.234 422.532 374.234 347.661 374.234 256.152 Z M 434.234 295.667 C 434.234 242.634 432.234 235.355 414.234 235.355 C 396.234 235.355 394.234 242.634 394.234 315.425 C 394.234 393.416 394.234 394.455 414.234 375.738 C 430.234 361.179 434.234 343.502 434.234 295.667 Z" style=""/>
    <g transform="matrix(0.869385, 0, 0, 0.803116, 29.996243, 57.588596)" fill="#000000" stroke="none" style="">
      <g transform="matrix(0.71314, 0, 0, 1.133224, 62.599182, -39.225765)" fill="#000000" stroke="none" style="">
        <path d="M195 431 c-62 -27 -88 -100 -61 -166 17 -42 97 -165 106 -165 11 0 98 140 110 175 16 49 6 96 -29 129 -31 30 -91 42 -126 27z m75 -86 c26 -32 -13 -81 -47 -59 -23 14 -28 41 -13 59 16 19 44 19 60 0z m-5 -97 c33 15 33 -3 0 -43 l-25 -30 -25 28 c-34 38 -34 61 0 45 19 -8 31 -8 50 0z"/>
        <path d="M91 172 c-44 -22 -60 -46 -45 -70 55 -91 406 -73 392 21 -3 22 -39 51 -75 62 -37 11 -30 -30 7 -44 36 -12 38 -26 8 -43 -31 -18 -245 -18 -275 0 -31 17 -29 31 7 43 19 7 30 18 30 30 0 23 -6 24 -49 1z"/>
      </g>
    </g>
  </g>
</svg>