<?xml version="1.0"?>
<svg width="533" height="426" xmlns="http://www.w3.org/2000/svg" xmlns:svg="http://www.w3.org/2000/svg">
 <defs>
  <clipPath id="clip0_35_1768">
   <rect fill="white" height="425.93" id="svg_1" width="532.54"/>
  </clipPath>
 </defs>
 <g class="layer">
  <title>Layer 1</title>
  <g clip-path="url(#clip0_35_1768)" id="svg_2">
   <path d="m21.52,243.75c-4.63,-10.53 -27.57,-51.98 -18.79,-63.31c3.05,-3.92 8.49,-3.24 12.76,-1.42c11.35,4.85 20.35,15.3 27.17,26.93c6.81,11.62 12.67,25.67 17.45,38.4c-12.25,0 -12.59,-0.6 -38.59,-0.6z" fill="#55D087" id="svg_3" stroke="#010101" stroke-linecap="round" stroke-linejoin="round" stroke-width="1.5"/>
   <path d="m8.2,178.34c8.51,22.06 21.47,43.95 30.82,65.54" id="svg_4" stroke="#010101" stroke-linecap="round" stroke-linejoin="round" stroke-width="1.5"/>
   <path d="m29.06,188.15c-3.31,4.69 -6.62,9.38 -9.93,14.08" id="svg_5" stroke="#010101" stroke-linecap="round" stroke-linejoin="round" stroke-width="1.5"/>
   <path d="m28.08,221.44c-6.43,-1.35 -12.84,-2.81 -19.24,-4.38" id="svg_6" stroke="#010101" stroke-linecap="round" stroke-linejoin="round" stroke-width="1.5"/>
   <path d="m55.72,244.04c-7.58,-22.29 -10.62,-46.66 -8.8,-70.54c0.37,-4.8 1.03,-9.85 3.66,-13.57c3.38,-4.79 9.43,-6.19 14.59,-4.66c5.16,1.53 9.54,5.51 13.24,9.97c9.87,11.88 15.82,27.37 21.05,42.74c4.05,11.92 7.79,23.99 11.4,35.89c-19.03,0.8 -38.05,1.59 -55.14,0.17z" fill="#55D087" id="svg_7" stroke="#010101" stroke-linecap="round" stroke-linejoin="round" stroke-width="1.5"/>
   <path d="m60.11,154.71c6.47,31.83 14.85,60.2 20.83,89.64" id="svg_8" stroke="#010101" stroke-linecap="round" stroke-linejoin="round" stroke-width="1.5"/>
   <path d="m91.71,186.85c-5.83,9.55 -11.67,19.07 -17.54,28.58" id="svg_9" stroke="#010101" stroke-linecap="round" stroke-linejoin="round" stroke-width="1.5"/>
   <path d="m69.48,196.5c-7.14,-5.47 -14.56,-10.46 -22.2,-14.94" id="svg_10" stroke="#010101" stroke-linecap="round" stroke-linejoin="round" stroke-width="1.5"/>
   <path d="m76.56,224.35c-9.4,-7.08 -19.06,-13.69 -28.95,-19.81" id="svg_11" stroke="#010101" stroke-linecap="round" stroke-linejoin="round" stroke-width="1.5"/>
   <path d="m409.07,83.72l5.57,-62.73l-191.74,-0.79l-2.64,64.81l188.81,-1.29z" fill="#E3E3FF" id="svg_12" stroke="#010101" stroke-linecap="round" stroke-linejoin="round" stroke-width="1.5" transform="matrix(1 0 0 1 0 0)"/>
   <path d="m527.99,193.71l3.8,-69.26l-141.06,-0.06l-3.17,70.12l140.43,-0.8z" fill="white" id="svg_13" stroke="#010101" stroke-linecap="round" stroke-linejoin="round" stroke-width="1.5"/>
   <path d="m415.28,377.37c4.87,3.02 17.56,7.11 17.56,7.11c0,0 14.74,-7.19 24.81,-11.84c1.02,-0.48 2.08,0.56 1.64,1.59c-7.16,16.84 -13.93,34.27 -21.11,50.95c-11.16,-2.81 -24.77,-10.52 -35.93,-13.33c-1.89,-0.48 4.41,-22.5 13.03,-34.48z" fill="#010101" id="svg_14" stroke="#010101" stroke-linecap="round" stroke-linejoin="round" stroke-width="1.5"/>
   <path d="m407.07,425.15c8.83,-17.16 16.71,-34.82 23.58,-52.86c-16.09,-6.16 -31.28,-12.09 -45.8,-19.36c-6.4,-23.84 -11.41,-48.29 -16.42,-72.74c-2.6,-12.68 -5.3,-25.61 -11.81,-36.79c-6.52,-11.19 -17.66,-20.51 -30.57,-21.37c-9.77,-0.65 -19.18,3.49 -27.82,8.08c-17.78,9.43 -34.34,21.16 -49.14,34.79c-33.15,16.54 -67.25,31.69 -102.16,46.52c7.2,12.7 19.08,22.23 31.99,29.04c12.92,6.8 26.96,11.14 40.86,15.61c63.34,20.36 125.56,44.21 187.29,69.08l0,0z" fill="#ff7f00" id="svg_15" stroke="#010101" stroke-linecap="round" stroke-linejoin="round" stroke-width="1.5" transform="matrix(1 0 0 1 0 0)"/>
   <path d="m323.6,331.04c-4.23,-16.65 -7.75,-31.51 -10.54,-48.46c-16.28,7.32 -30.98,15.96 -46,28.3c8.86,3.4 39.01,13.44 56.54,20.16z" fill="white" id="svg_16" stroke="#010101" stroke-linecap="round" stroke-linejoin="round" stroke-width="1.5"/>
   <path d="m323.18,330.53c21.22,8.6 42.73,16.5 64.47,23.69" id="svg_17" stroke="#010101" stroke-linecap="round" stroke-linejoin="round" stroke-width="1.5"/>
   <path d="m249.01,305.01c5.37,1.82 12.67,4.06 18.05,5.87" id="svg_18" stroke="#010101" stroke-linecap="round" stroke-linejoin="round" stroke-width="1.5"/>
   <path d="m171.46,96c-1.03,-2.97 -2.08,-5.96 -3.75,-8.62c-1.66,-2.67 -4.01,-5.01 -6.97,-6.07c-1.9,-0.69 -3.96,-0.81 -5.98,-0.76c-10.06,0.29 -28.5,6.43 -33.54,14.92c-1.12,1.88 -1.79,3.99 -2.21,6.13c-0.56,2.83 -0.68,5.73 -0.37,8.59c0.71,6.48 3.19,12.74 6.31,18.46c1.33,2.43 4.01,4.25 6.52,5.42c1.96,0.91 4.21,0.84 6.36,0.75c1.64,-0.06 3.33,-0.14 4.81,-0.83c2.1,-0.98 3.48,-3.03 4.6,-5.06c3.71,-6.72 5.88,-14.27 10.17,-20.64c3.81,-5.65 9.16,-10.13 14.05,-12.29l0,0z" fill="#010101" id="svg_19" stroke="#010101" stroke-linecap="round" stroke-linejoin="round" stroke-width="1.5"/>
   <path d="m136.94,139.26c2.55,10.09 5.1,20.19 7.9,29.85c3.78,1.48 8,1.61 11.99,0.89c4,-0.72 7.8,-2.26 11.45,-4.04c2.1,-1.02 4.25,-2.21 5.88,-4.55c-1.99,-2.54 -2.43,-5.92 -3.18,-9.06c-0.7,-2.95 -1.74,-5.82 -3.23,-9.08c4.35,-2.02 9.03,-4.36 11.06,-8.71c1.54,-3.32 1.22,-7.19 0.7,-10.81c-1.14,-8.05 -3.04,-15.98 -5.66,-23.67c-0.71,-2.08 -1.49,-4.19 -2.8,-5.97c-4.62,-6.28 -9.74,-5 -12.22,-2.8c-1.44,1.27 -3.21,2.17 -5.08,2.59c-2.8,0.62 -5.94,0.24 -8.32,1.82c-1.95,1.3 -2.92,3.63 -3.55,5.88c-2.01,7.22 -1.6,14.97 0.22,22.24c0.35,1.39 0.7,3.03 -0.23,4.12c-1.18,1.37 -3.01,1.73 -4.37,0.53c-1.35,-1.2 -2.84,-3.85 -4.47,-4.63c-2.49,-1.21 -5.69,0.23 -7.06,2.63c-1.38,2.39 -1.22,5.41 -0.34,8.03c0.81,2.4 2.33,4.73 4.67,5.7c2.35,0.96 5.53,0.04 6.64,-0.96z" fill="white" id="svg_20" stroke="#010101" stroke-linecap="round" stroke-linejoin="round" stroke-width="1.5"/>
   <path d="m155.71,143.73c2.25,-0.11 4.49,0.14 6.74,0.15c2.24,0.02 4.55,-0.21 6.56,-1.2" id="svg_21" stroke="#010101" stroke-linecap="round" stroke-linejoin="round" stroke-width="1.5"/>
   <path d="m166.11,108.19c1.68,3.57 3.37,7.16 5.66,10.37c0.09,0.12 0.18,0.25 0.17,0.4c0,0.15 -0.11,0.28 -0.21,0.39c-1.32,1.47 -3.21,2.41 -5.18,2.59" id="svg_22" stroke="#010101" stroke-linecap="round" stroke-linejoin="round" stroke-width="1.5"/>
   <path d="m344.29,116.7c5.1,-9.73 9.47,-17.8 14.58,-27.53c0.78,-1.5 2.73,-4.32 4.48,-3.11c1.24,0.85 0.94,5.46 -3.62,12.68c4.39,-7.77 6.54,-11.17 10.94,-18.94c0.55,-0.98 1.29,-2.08 2.33,-2.08c1.06,0 1.81,1.27 1.78,2.45c-0.02,1.18 -0.59,2.26 -1.15,3.27c-3.17,5.83 -2.89,6.51 -6.07,12.34c4.86,2.64 11.04,8.49 9.04,11.4c-7.63,11.13 -5.96,7.17 -13.6,18.3" fill="white" id="svg_23"/>
   <path d="m344.29,116.7c5.1,-9.73 9.47,-17.8 14.58,-27.53c0.78,-1.5 2.73,-4.32 4.48,-3.11c1.24,0.85 0.94,5.46 -3.62,12.68c4.39,-7.77 6.54,-11.17 10.94,-18.94c0.55,-0.98 1.29,-2.08 2.33,-2.08c1.06,0 1.81,1.27 1.78,2.45c-0.02,1.18 -0.59,2.26 -1.15,3.27c-3.17,5.83 -2.89,6.51 -6.07,12.34c4.86,2.64 11.04,8.49 9.04,11.4c-7.63,11.13 -5.96,7.17 -13.6,18.3" id="svg_24" stroke="#010101" stroke-linecap="round" stroke-linejoin="round" stroke-width="1.5"/>
   <path d="m359.73,98.74c1.53,1.54 2.94,3.24 3.86,5.21c0.92,1.97 1.33,4.23 0.82,6.34" id="svg_25" stroke="#010101" stroke-linecap="round" stroke-linejoin="round" stroke-width="1.5"/>
   <path d="m143.47,167.04c-16.34,4.11 -33.99,9.07 -44,22.61c-4.47,6.05 -6.97,13.3 -9.02,20.53c-5.21,18.4 -7.9,37.51 -7.97,56.63c-0.04,10.62 1.28,22.42 9.25,29.43c6.55,5.77 16.26,6.77 24.75,4.72c8.49,-2.05 16.07,-6.73 23.91,-11.29c2.33,7.09 4.65,14.19 6.69,21.74c22.03,-9.36 44.06,-18.73 66.09,-28.1c11.83,-5.03 23.7,-10.08 34.88,-17.24c-8.72,-23.89 -17.71,-47.68 -27.2,-70.55c31.18,10.17 71.78,14.53 86.45,4.49c4.52,-3.09 9.84,-8.52 13.58,-12.53c17.23,-18.52 37.02,-41.21 50.47,-62.61c-9.21,-5.48 -18.38,-9.73 -30.07,-16.68c-14.36,18.14 -31.39,39.82 -49.24,56.6c-24.91,-4.58 -48.48,-9.44 -73.61,-12.64c-6.48,-0.82 -13.02,-1.6 -19.52,-0.95c-8.17,0.81 -15.68,2.25 -23.31,4.72c-1.38,0.45 -14.17,8.36 -14.92,8.55c-1.53,0.38 -11.85,1.22 -17.21,2.57l0,0z" fill="#010101" id="svg_26" stroke="#010101" stroke-linecap="round" stroke-linejoin="round" stroke-width="1.5"/>
   <path d="m161.43,235.75c4.18,10.75 8.57,21.42 13.16,31.99" id="svg_27" stroke="white" stroke-linecap="round" stroke-linejoin="round" stroke-width="1.5"/>
   <path d="m335.65,116.51c9.57,6.46 19.65,11.41 29.33,17.94" id="svg_28" stroke="white" stroke-linecap="round" stroke-linejoin="round" stroke-width="1.5"/>
   <path d="m161.26,163.62c3.45,-4.85 7.01,-9.62 10.68,-14.31c2.3,1.8 4.69,3.49 7.4,4.88c-1.61,5.02 -3.21,10.03 -4.81,15.04c-2.02,-1.26 -10.79,-4.43 -13.27,-5.61z" fill="#010101" id="svg_29" stroke="#010101" stroke-linecap="round" stroke-linejoin="round" stroke-width="1.5"/>
   <path d="m139.51,159.66c7.18,2.03 14.53,3.47 22.12,4.44c-1.37,3.35 -2.41,6.83 -3.1,10.37c-7.43,-1.58 -14.76,-3.62 -21.94,-6.08c0.97,-2.72 1.94,-5.44 2.92,-8.73z" fill="#010101" id="svg_30" stroke="#010101" stroke-linecap="round" stroke-linejoin="round" stroke-width="1.5"/>
   <path d="m161.26,163.62c15.15,42.38 30.5,81.27 45.15,122.26" id="svg_31" stroke="white" stroke-linecap="round" stroke-linejoin="round" stroke-width="1.5"/>
   <path d="m133.01,213.5c16.73,-7.79 33.84,-14.74 51.26,-20.83c0.91,-0.32 1.92,0.04 2.4,0.87c1.95,3.43 3.53,7.06 4.72,10.81c0.32,0.99 -0.21,2.05 -1.18,2.43c-1.18,0.48 -2.36,0.96 -3.54,1.5c6.61,17.96 13.23,35.92 19.26,53.6c-15.41,7.26 -30.81,14.52 -45.75,21.58c-5.35,-13.1 -24.8,-59.67 -27.17,-69.96l0,0z" fill="white" id="svg_32" stroke="#010101" stroke-linecap="round" stroke-linejoin="round" stroke-width="1.5"/>
   <path d="m154.82,228.97c-1.24,-2.61 -2.36,-5.28 -2.85,-8.11c7.15,-4.63 14.95,-8.26 23.09,-10.76c0.25,-0.07 0.53,-0.15 0.78,-0.05c0.28,0.12 0.41,0.43 0.53,0.71c1.07,2.73 2.15,5.45 3.23,8.18c-8.3,3.39 -16.61,6.77 -24.78,10.03z" id="svg_33" stroke="#010101" stroke-linecap="round" stroke-linejoin="round" stroke-width="1.5"/>
   <path d="m157.53,223.81c0.62,-1.47 1.45,-2.85 2.44,-4.1c0.21,-0.26 0.44,-0.53 0.74,-0.7c0.38,-0.2 0.83,-0.22 1.26,-0.19c1.17,0.09 2.32,0.52 3.49,0.42c2.45,-0.2 4.25,-2.61 6.68,-2.96" id="svg_34" stroke="#010101" stroke-linecap="round" stroke-linejoin="round" stroke-width="1.5"/>
   <path d="m180.4,194.04c2.12,5.11 5.08,10.4 6.51,14.9" id="svg_35" stroke="#010101" stroke-linecap="round" stroke-linejoin="round" stroke-width="1.5"/>
   <path d="m177.41,254.48c4.41,-1.29 8.82,-2.57 13.23,-3.86c3.03,-0.88 6.19,-1.84 8.44,-4.06c0.71,-0.7 1.34,-1.6 1.3,-2.6c-0.03,-1 -1.01,-1.98 -1.97,-1.68c1.06,-0.6 1.6,-1.98 1.22,-3.13c-0.38,-1.15 -1.64,-1.94 -2.85,-1.79c1.07,-0.45 1.65,-1.82 1.23,-2.9c-0.41,-1.08 -1.76,-1.71 -2.86,-1.32c0.66,-0.76 1.37,-1.69 1.15,-2.67c-0.2,-0.91 -1.17,-1.48 -2.11,-1.53c-0.93,-0.05 -1.83,0.3 -2.69,0.64c-2.4,0.95 -4.79,1.91 -7.18,2.86c0.37,-0.95 0.83,-1.59 1.3,-2.22c0.67,-0.91 1.36,-1.87 1.52,-2.99c0.15,-1.12 -0.42,-2.43 -1.52,-2.7c-1,-0.24 -1.97,0.44 -2.78,1.07c-3.29,2.57 -7.97,6.12 -10.94,8.55c1.34,7.39 4.26,13.44 5.51,20.33z" fill="white" id="svg_36" stroke="#010101" stroke-linecap="round" stroke-linejoin="round" stroke-width="1.5"/>
   <path d="m129.73,253.01c-3.33,-6.25 -6.31,-12.68 -8.96,-19.26c-0.75,7.99 -0.77,16.03 -0.06,24.02c3.18,-1.85 6.3,-3.8 9.02,-4.76l0,0z" id="svg_37" stroke="white" stroke-linecap="round" stroke-linejoin="round" stroke-width="1.5"/>
   <path d="m129.9,252.54c13.09,-8.49 26.91,-15.82 41.27,-21.91c6.71,11.01 11.08,23.49 14.97,31.75c-16.39,7.99 -30.13,17.87 -45.75,27.29" fill="#010101" id="svg_38"/>
   <path d="m129.9,252.54c13.09,-8.49 26.91,-15.82 41.27,-21.91c6.71,11.01 11.08,23.49 14.97,31.75c-16.39,7.99 -30.13,17.87 -45.75,27.29" id="svg_39" stroke="white" stroke-linecap="round" stroke-linejoin="round" stroke-width="1.5"/>
   <path d="m161.26,163.62c2.93,1.68 5.77,3.76 8.71,5.42c2.95,-4.85 5.91,-9.7 8.87,-14.56" id="svg_40" stroke="white" stroke-linecap="round" stroke-linejoin="round" stroke-width="1.5"/>
   <path d="m136.3,168.72c5.67,3.1 14.08,5.2 20.41,6.49c0.4,0.08 2.11,-5.58 4.55,-11.59" id="svg_41" stroke="white" stroke-linecap="round" stroke-linejoin="round" stroke-width="1.5"/>
   <path d="m464.51,317.09l5.28,9.3" id="svg_42" stroke="#010101" stroke-linecap="round" stroke-linejoin="round" stroke-width="1.5"/>
   <path d="m31.5,307.16c4.09,-2.59 3.84,-2.26 7.93,-4.85" id="svg_43" stroke="#010101" stroke-linecap="round" stroke-linejoin="round" stroke-width="1.5"/>
   <path d="m433.56,66.9l52.23,0.89l-6.4,45.92" id="svg_44" stroke="#010101" stroke-linecap="round" stroke-linejoin="round" stroke-width="1.5"/>
   <path d="m63.23,81.51c-1.33,-0.18 -2.75,0.47 -3.48,1.6c-0.74,1.13 -0.77,2.68 -0.06,3.83c1.25,2.05 4.68,2.15 6.1,0.21c1.42,-1.94 0.39,-5.24 -2.55,-5.64l-0.01,0z" fill="#010101" id="svg_45"/>
   <path d="m467.97,240.7c-0.59,-0.08 -1.22,0.2 -1.55,0.7c-0.32,0.5 -0.33,1.19 -0.02,1.7c0.55,0.91 2.07,0.95 2.7,0.09c0.62,-0.85 0.17,-2.32 -1.13,-2.49z" fill="#010101" id="svg_46"/>
   <path d="m138.34,395.35c-1.34,-0.18 -2.76,0.46 -3.49,1.59c-0.74,1.13 -0.77,2.69 -0.06,3.84c1.25,2.05 4.68,2.15 6.1,0.21c1.42,-1.94 0.39,-5.24 -2.55,-5.64l0,0z" fill="#010101" id="svg_47"/>
   <path d="m259.97,49.52l-8.59,-0.75l-3.43,-7.7l-3.76,7.56l-8.6,1.17l6.72,4.84l-2.22,9.17l7.66,-4.67l7.88,5l-2.34,-9.2l6.68,-5.42z" fill="#ffff00" id="svg_48" stroke="#010101" stroke-linecap="round" stroke-linejoin="round" stroke-width="1.5"/>
   <path d="m290.94,49.52l-8.58,-0.75l-3.43,-7.7l-3.76,7.56l-8.6,1.17l6.72,4.84l-2.22,9.17l7.66,-4.67l7.87,5l-2.34,-9.2l6.68,-5.42z" fill="#ffff00" id="svg_49" stroke="#010101" stroke-linecap="round" stroke-linejoin="round" stroke-width="1.5" transform="matrix(1 0 0 1 0 0)"/>
   <path d="m321.26,49.52l-8.58,-0.75l-3.44,-7.7l-3.75,7.56l-8.6,1.17l6.71,4.84l-2.22,9.17l7.67,-4.67l7.87,5l-2.34,-9.2l6.68,-5.42z" fill="#ffff00" id="svg_50" stroke="#010101" stroke-linecap="round" stroke-linejoin="round" stroke-width="1.5" transform="matrix(1 0 0 1 0 0)"/>
   <path d="m352.68,49.52l-8.58,-0.75l-3.44,-7.7l-3.76,7.56l-8.59,1.17l6.71,4.84l-2.22,9.17l7.67,-4.67l7.87,5l-2.34,-9.2l6.68,-5.42z" fill="#ffff00" id="svg_51" stroke="#010101" stroke-linecap="round" stroke-linejoin="round" stroke-width="1.5" transform="matrix(1 0 0 1 0 0)"/>
   <path d="m401.72,47.33l-14.66,-1.29l-5.87,-13.14l-6.42,12.92l-14.68,1.99l11.47,8.28l-3.8,15.66l13.1,-7.98l13.45,8.54l-4,-15.72l11.41,-9.26z" fill="#ffff00" id="svg_52" stroke="#010101" stroke-linecap="round" stroke-linejoin="round" stroke-width="1.5" transform="matrix(1 0 0 1 0 0)"/>
   <path d="m369.83,91.66c-2.01,3.55 -4.05,7.18 -4.75,11.2c-0.14,0.78 -0.08,1.82 0.68,2.07c0.41,0.15 0.87,-0.04 1.26,-0.26c3.47,-1.97 5.58,-8.06 7.62,-11.49c-1.99,3.73 -6.61,12.24 -4.47,14.05c3.39,2.88 6.16,-8.61 7.41,-11.02c-1.26,3.1 -3.08,7.6 -3.9,10.84c-0.18,0.68 -0.33,1.4 -0.19,2.09c0.13,0.69 0.63,1.36 1.33,1.47c0.84,0.14 1.58,-0.53 2.13,-1.18c1.89,-2.25 3.19,-4.98 3.75,-7.86c0.11,-0.56 0.2,-1.15 0.11,-1.72c-0.18,-1.25 -1.11,-2.24 -2.02,-3.13c-1.34,-1.31 -2.72,-2.58 -4.14,-3.8c-0.9,-0.78 -3.77,-3.25 -4.82,-1.26l0,0z" fill="white" id="svg_53" stroke="#010101" stroke-linecap="round" stroke-linejoin="round" stroke-width="1.5"/>
   <path d="m406.24,0.75c0.4,2.66 0.81,5.32 1.21,7.97l-1.21,-7.97z" fill="white" id="svg_54"/>
   <path d="m406.24,0.75c0.4,2.66 0.81,5.32 1.21,7.97" id="svg_55" stroke="#010101" stroke-linecap="round" stroke-linejoin="round" stroke-width="1.5"/>
   <path d="m421.8,10.87c1.39,-1.53 4.62,-6.55 5.9,-8.17l-5.9,8.17z" fill="white" id="svg_56"/>
   <path d="m421.8,10.87c1.39,-1.53 4.62,-6.55 5.9,-8.17" id="svg_57" stroke="#010101" stroke-linecap="round" stroke-linejoin="round" stroke-width="1.5"/>
   <path d="m430.92,20.2c2.98,-1.22 6,-2.34 9.04,-3.38l-9.04,3.38z" fill="white" id="svg_58"/>
   <path d="m430.92,20.2c2.98,-1.22 6,-2.34 9.04,-3.38" id="svg_59" stroke="#010101" stroke-linecap="round" stroke-linejoin="round" stroke-width="1.5"/>
   <path d="m455.54,144.47c18.89,-0.57 42.29,-1.15 61.18,-1.73l-61.18,1.73z" fill="#7B5FF1" id="svg_60"/>
   <path d="m455.54,144.47c18.89,-0.57 42.29,-1.15 61.18,-1.73" id="svg_61" stroke="#010101" stroke-linecap="round" stroke-linejoin="round" stroke-width="1.5"/>
   <path d="m457.12,157.7c9.49,-0.09 47.32,0.03 56.81,-0.06l-56.81,0.06z" fill="#7B5FF1" id="svg_62"/>
   <path d="m457.12,157.7c9.49,-0.09 47.32,0.03 56.81,-0.06" id="svg_63" stroke="#010101" stroke-linecap="round" stroke-linejoin="round" stroke-width="1.5"/>
   <path d="m456.33,171.35c8.69,-0.18 17.39,-0.35 26.09,-0.53l-26.09,0.53z" fill="#7B5FF1" id="svg_64"/>
   <path d="m456.33,171.35c8.69,-0.18 17.39,-0.35 26.09,-0.53" id="svg_65" stroke="#010101" stroke-linecap="round" stroke-linejoin="round" stroke-width="1.5"/>
   <path d="m442.39,173.32c-0.39,0.48 -0.8,0.93 -1.24,1.35c-3.81,3.65 -9.43,5.09 -14.78,5.27c-5.39,0.18 -10.9,-0.74 -15.65,-3.31c-1.38,-0.74 -2.7,-1.64 -3.9,-2.67c-2.92,-2.49 -5.19,-5.71 -6.24,-9.38c-1.19,-4.14 -0.8,-8.64 0.6,-12.72c3.57,-10.46 14.87,-18.3 25.72,-16.21c3.31,0.64 9.37,2.44 13.37,6.62c2.85,2.97 5.38,7.48 6.18,11.51c1.37,6.79 0.28,14.15 -4.06,19.54l0,0z" fill="#FF8B37" id="svg_66" stroke="#010101" stroke-linecap="round" stroke-linejoin="round" stroke-width="1.5"/>
   <path d="m441.15,174.67c-3.81,3.65 -9.43,5.09 -14.78,5.27c-5.39,0.18 -10.9,-0.74 -15.65,-3.31c-1.38,-0.74 -2.7,-1.64 -3.9,-2.67c0.3,-0.36 0.62,-0.73 0.95,-1.14c4.04,-4.83 10.37,-7.66 16.67,-7.46c6.3,0.2 12.44,3.43 16.16,8.51c0.19,0.27 0.37,0.53 0.55,0.8l0,0z" fill="white" id="svg_67" stroke="#010101" stroke-linecap="round" stroke-linejoin="round" stroke-width="1.5"/>
   <path d="m419.39,147.81c-1.64,1.38 -2.75,3.38 -3.1,5.5c-0.23,1.41 -0.13,2.93 0.58,4.17c0.93,1.61 2.74,2.5 4.52,3c2.46,0.68 5.18,0.76 7.47,-0.36c3.25,-1.58 4.12,-5.07 3.14,-8.54c-0.99,-3.48 -7.69,-7.89 -12.61,-3.77z" fill="white" id="svg_68" stroke="#010101" stroke-linecap="round" stroke-linejoin="round" stroke-width="1.5"/>
  </g>
 </g>
</svg>