<?xml version="1.0"?>
<svg width="591" height="303" xmlns="http://www.w3.org/2000/svg" xmlns:svg="http://www.w3.org/2000/svg">
 <defs>
  <clipPath id="clip0_35_1577">
   <rect fill="white" height="302.28" id="svg_1" width="590.75"/>
  </clipPath>
 </defs>
 <g class="layer">
  <title>Layer 1</title>
  <g clip-path="url(#clip0_35_1577)" id="svg_2" transform="translate(2 -5) matrix(1 0 0 1 -2 4)">
   <path d="m107.93,101.02c-6.6,-10 -12.22,-18.28 -18.82,-28.27c-1.02,-1.54 -3.44,-4.39 -5.2,-2.89c-1.26,1.07 -0.43,6.03 5.31,13.36c-5.61,-7.94 -8.32,-11.39 -13.93,-19.34c-0.71,-1.01 -1.63,-2.12 -2.76,-2.01c-1.15,0.12 -1.82,1.58 -1.67,2.85c0.16,1.28 0.89,2.39 1.61,3.43c4.08,5.98 3.85,6.75 7.93,12.72c-5.14,-7.86 -5.37,-8.97 -11.38,-16.05c-1,-1.17 -2.43,-2.45 -3.71,-1.8c-2.84,1.94 1.12,7 4.11,11c1.72,2.29 3.38,4.46 7.61,9.75c-4.42,-5.11 -5.97,-7.44 -10.4,-12.54c-0.84,-0.96 -1.74,-1.96 -2.9,-2.27c-1.15,-0.31 -2.58,0.45 -2.6,1.75c-0.01,0.82 0.52,1.55 1.03,2.18c4.66,5.91 5.87,8.44 10.53,14.34c-3.44,-4.23 -3.81,-4.73 -7.93,-8.14c-1.23,-1.01 -3.13,-1.92 -4.03,-0.63c-0.83,1.2 0.19,2.92 1.15,4.06c9.5,11.24 17.21,18.83 26.71,30.07" fill="white" id="svg_3"/>
   <path d="m103.93,100.02c-6.6,-10 -12.22,-18.28 -18.82,-28.27c-1.02,-1.54 -3.44,-4.39 -5.2,-2.89c-1.26,1.07 -0.43,6.03 5.31,13.36c-5.61,-7.94 -8.32,-11.39 -13.93,-19.34c-0.71,-1.01 -1.63,-2.12 -2.76,-2.01c-1.15,0.12 -1.82,1.58 -1.67,2.85c0.16,1.28 0.89,2.39 1.61,3.43c4.08,5.98 3.85,6.75 7.93,12.72c-5.14,-7.86 -5.37,-8.97 -11.38,-16.05c-1,-1.17 -2.43,-2.45 -3.71,-1.8c-2.84,1.94 1.12,7 4.11,11c1.72,2.29 3.38,4.46 7.61,9.75c-4.42,-5.11 -5.97,-7.44 -10.4,-12.54c-0.84,-0.96 -1.74,-1.96 -2.9,-2.27c-1.15,-0.31 -2.58,0.45 -2.6,1.75c-0.01,0.82 0.52,1.55 1.03,2.18c4.66,5.91 5.87,8.44 10.53,14.34c-3.44,-4.23 -3.81,-4.73 -7.93,-8.14c-1.23,-1.01 -3.13,-1.92 -4.03,-0.63c-0.83,1.2 0.19,2.92 1.15,4.06c9.5,11.24 17.21,18.83 26.71,30.07" fill="#ffffff" id="svg_4" stroke="#000000" stroke-linecap="round" stroke-linejoin="round" stroke-width="1.5" transform="matrix(1 0 0 1 0 0)"/>
   <path d="m89.22,83.23c-1.49,1.83 -2.84,3.83 -3.62,6.07c-0.79,2.23 -0.98,4.73 -0.19,6.97" id="svg_5" stroke="#010101" stroke-linecap="round" stroke-linejoin="round" stroke-width="1.5"/>
   <path d="m103.02,301.03c-8.14,-18.02 -20.65,-34.05 -26.71,-52.88c-1.5,-4.68 -2.59,-9.62 -1.96,-14.49c1.79,-13.71 30.04,-27.57 57.72,10.77c15.21,21.05 24.06,33.85 34.82,56.08c-26.08,0.82 -46.68,0.52 -63.87,0.52l0,0z" fill="#55D087" id="svg_6" stroke="#010101" stroke-linecap="round" stroke-linejoin="round" stroke-width="1.5"/>
   <path d="m107.91,301.03c-4.58,-7.5 -10.26,-16 -14.84,-23.5c-4.03,-6.59 -8.15,-13.28 -13.97,-18.36c-5.74,-5.01 -13.03,-8.23 -20.6,-9.11c-5.88,-0.68 -12.57,0.39 -16.19,5.07c-3.22,4.17 -3.1,9.99 -2.27,15.2c1.89,11.75 6.69,23.03 14.17,30.93c14.75,-0.1 30.59,0.81 53.7,-0.23z" fill="#55D087" id="svg_7" stroke="#010101" stroke-linecap="round" stroke-linejoin="round" stroke-width="1.5"/>
   <path d="m86.29,221.38c4.24,5.46 33.91,54.27 49.27,79.68" id="svg_8" stroke="#010101" stroke-linecap="round" stroke-linejoin="round" stroke-width="1.5"/>
   <path d="m48.87,251.31c11.47,16.4 20.61,32.57 30.83,49.77" id="svg_9" stroke="#010101" stroke-linecap="round" stroke-linejoin="round" stroke-width="1.5"/>
   <path d="m128.99,239.7l-11.61,30.83" id="svg_10" stroke="#010101" stroke-linecap="round" stroke-linejoin="round" stroke-width="1.5"/>
   <path d="m76.89,249.87l29.74,3.66" id="svg_11" stroke="#010101" stroke-linecap="round" stroke-linejoin="round" stroke-width="1.5"/>
   <path d="m89.15,272.5l-16.33,16.93" id="svg_12" stroke="#010101" stroke-linecap="round" stroke-linejoin="round" stroke-width="1.5"/>
   <path d="m124.2,158.3c-2.86,0.2 -6.1,0.6 -7.79,2.92c-1.02,1.4 -1.23,3.24 -0.94,4.76c11,39.56 17.85,78.13 32.27,115.86c2.48,8.92 6.37,7.81 9.56,7.97c7.71,0.41 112.31,-0.43 177.81,-0.42c2.52,0 4.99,-2.03 5.26,-4.54c0.27,-2.62 -2.29,-10.2 -5.31,-18.82c-7.06,-24.63 -23.99,-79.35 -30.77,-103.01c-1,-3.49 -4.67,-6.01 -8.3,-5.91c-29.09,0.78 -168.75,0.98 -171.79,1.19z" fill="#7f7f7f" id="svg_13" stroke="#010101" stroke-linecap="round" stroke-linejoin="round" stroke-width="1.5" transform="matrix(1 0 0 1 0 0)"/>
   <path d="m337.51,8.52c4.93,-4.48 11.48,0.42 15.08,5.58c2.59,3.72 4.61,8.03 4.65,12.56c0.04,4.74 -2.07,9.44 -1.19,14.1c0.7,3.69 3.22,6.95 3.32,10.71c0.1,4.41 -3.21,8.6 -2.28,12.92c0.47,2.23 2.01,4.06 2.88,6.17c1.34,3.25 0.92,7.17 -1.07,10.08c-21.9,-0.53 -43.81,-1.07 -65.89,-1.46c-8.68,-1.51 -14.95,-1.93 -25.89,-3.84c-1.71,-0.29 -3.52,-0.9 -4.54,-2.3c-1.32,-1.82 -0.73,-4.42 0.46,-6.32c1.2,-1.9 2.91,-3.44 3.99,-5.4c3.02,-5.48 0.42,-14.31 3.53,-19.73c1.81,-3.14 5.26,-5.1 6.98,-8.29c2.25,-4.17 1.07,-9.52 3.19,-13.76c2.46,-4.91 9.18,-5.22 13.98,-7.91c5.65,-3.16 10.37,-8.1 16.55,-10.01c4.64,-1.42 9.69,-0.97 14.33,0.42c4.64,1.4 9.55,3.51 11.92,6.48z" fill="#010101" id="svg_14" stroke="#010101" stroke-linecap="round" stroke-linejoin="round" stroke-width="1.5"/>
   <path d="m124.2,166.33c9.03,36.61 20.05,78.38 31.57,114.14c67.8,0 109.04,0.17 175.03,0.17c-10.71,-33.23 -34.71,-114.86 -34.71,-114.86c0,0 -164.85,0.44 -171.89,0.55z" fill="white" id="svg_15" stroke="#010101" stroke-linecap="round" stroke-linejoin="round" stroke-width="1.5"/>
   <path d="m336.71,18.42c-0.34,2.99 3.03,4.85 4.93,7.19c2.03,2.51 2.45,5.95 2.47,9.17c0.05,8.32 -2.34,23.71 -5.2,29.22c-3.13,6.06 -7.67,8.35 -14.66,8.35c-0.82,6.02 -2.15,12.8 -3.37,18.75c7.81,0.12 15.62,0.75 23.36,1.89c-1.23,6.52 -2.66,13.07 -5.49,19.07c-2.77,5.88 -6.82,11.08 -11.17,15.91c-3.57,3.97 -7.41,7.77 -11.97,10.57c-6.37,3.91 -14.02,5.7 -21.46,5.01c-2.8,-0.26 -5.62,-0.88 -8.08,-2.24c-2.35,-1.32 -4.29,-3.26 -6.02,-5.32c-8.63,-10.25 -12.86,-24.94 -8.08,-37.46c1.15,-3.02 2.81,-6.24 1.82,-9.45c1.7,-1.32 2.12,-2.11 4.27,-2.11c3.37,0 9.72,1.13 12.53,0.55c1,-2.62 1.98,-5.97 2.56,-9.12c5.18,1.39 6.94,1.48 9.29,1.2c5.12,-0.62 3.55,-8.82 3.49,-10.69c-0.2,-5.75 3.34,-5.77 1.39,-16.5c-5.77,3.81 -10.26,-4.36 -6.88,-9.88c1.22,-1.99 3.27,-3.48 5.56,-3.93c1.13,-0.23 2.35,-0.2 3.41,0.25c1.07,0.46 1.96,1.38 2.55,2.59c2.55,-0.35 3.5,-3.54 5.52,-5.12c1.31,-1.03 3.07,-1.36 4.32,-2.46c1.87,-1.65 2.22,-4.75 4.42,-5.96c0.71,-0.4 1.53,-0.53 2.31,-0.78c3.91,-1.26 6.3,-5.32 8.18,-8.71l0,0.01z" fill="white" id="svg_16" stroke="#010101" stroke-linecap="round" stroke-linejoin="round" stroke-width="1.5"/>
   <path d="m230.57,151.24c-11.73,23.58 -20.9,49.94 -29.41,74.87c39.59,7.94 78.99,13.92 118.59,18.1c8.31,-33.78 19.13,-68.11 27.11,-100.51c8.56,12.29 17.92,27.26 28.01,38.85c19.78,22.7 36.69,25.27 50.78,20.85c13.65,-4.29 40.14,-20.28 53.25,-128.59c-15.5,-2.37 -24.9,-2.3 -39.28,-4.5c-9.01,34.22 -15.36,56.96 -25.35,94.9c-5.39,-6.36 -11.75,-26.66 -30.71,-51.13c-6,-7.74 -13.29,-14.77 -22.24,-18.76c-7.05,-3.15 -14.99,-4.3 -22.64,-3.26c-12.69,12.62 -27.71,23.74 -39.87,36.22c-6.56,-13.98 -14.02,-26.3 -19.79,-41.22c-26.74,-2.61 -43.65,7.31 -60.76,20.15c-17.12,12.85 -31.7,28.8 -48.68,41.83c-23.12,-20.21 -43.54,-40.55 -62.16,-62.43c-7.93,10.13 -19.41,19.37 -28.22,30.87c9.28,9.56 36.24,40.51 56.53,57.4c9.65,8.03 21.43,15.92 33.87,14.27c5.56,-0.74 11.17,-2.13 16.08,-4.86c11.05,-6.12 29.96,-20.45 44.89,-33.05l0,0z" fill="#ff7f00" id="svg_17" stroke="#010101" stroke-linecap="round" stroke-linejoin="round" stroke-width="1.5"/>
   <path d="m313.17,69.34c3.66,2.73 8.62,3.11 12.42,2.98" id="svg_18" stroke="#010101" stroke-linecap="round" stroke-linejoin="round" stroke-width="1.5"/>
   <path d="m336.2,40c1.07,3.22 2.33,6.37 3.75,9.45c-1.39,1.23 -3.08,2.1 -4.89,2.5" id="svg_19" stroke="#010101" stroke-linecap="round" stroke-linejoin="round" stroke-width="1.5"/>
   <path d="m201.51,226.26c-5.32,17.41 -11.47,35.4 -17.93,53.5c19.26,-0.04 33.41,0.05 56.54,0.05c3.67,-4.62 10.51,-12.01 10.51,-12.01c0,0 2.42,8.28 4.3,12.03c19.36,-0.05 38.21,-0.85 56.42,-0.81c1.62,-3.7 6.43,-26.48 8.4,-34.81c-9.85,-3.9 -81.17,-21.8 -118.24,-17.95z" fill="#010101" id="svg_20" stroke="#010101" stroke-linecap="round" stroke-linejoin="round" stroke-width="1.5"/>
   <path d="m299.09,127.83c-12.68,39.86 -21.76,70.93 -34.01,109.43" id="svg_21" stroke="#010101" stroke-linecap="round" stroke-linejoin="round" stroke-width="1.5"/>
   <path d="m137.93,3.09c0,0 -42.3,0.05 -45.35,0.04c0.08,14.18 0.16,26.37 0.24,40.56c9.17,-0.33 45.11,0.21 45.11,0.21l0,-40.81z" fill="#ff7f00" id="svg_22" stroke="#010101" stroke-linecap="round" stroke-linejoin="round" stroke-width="1.5" transform="matrix(1 0 0 1 0 0)"/>
   <path d="m1.54,3.13l-0.79,40.77c0,0 67.36,0.68 92.07,-0.21c-0.08,-14.19 -0.16,-26.38 -0.24,-40.57c-20.03,-0.07 -91.04,0.01 -91.04,0.01z" fill="#E3E3FF" id="svg_23" stroke="#010101" stroke-linecap="round" stroke-linejoin="round" stroke-width="1.5"/>
   <path d="m105.77,13.55c-2.09,1.26 -3.56,3.49 -3.9,5.9c-0.28,2.03 0.21,4.12 1.09,5.97c0.74,1.55 1.81,3.02 3.35,3.79c1.39,0.7 3.02,0.76 4.58,0.69c1.96,-0.09 3.95,-0.36 5.75,-1.18c1.79,-0.82 3.37,-2.23 4.06,-4.07c0.78,-2.08 0.18,-4.38 -0.69,-6.43c-2.96,-7 -10.7,-6.79 -14.24,-4.67l0,0z" fill="#ffffff" id="svg_24" stroke="white" stroke-linecap="round" stroke-linejoin="round" stroke-width="1.5"/>
   <path d="m118.67,28.53l7.34,6.99" id="svg_25" stroke="white" stroke-linecap="round" stroke-linejoin="round" stroke-width="1.5"/>
   <path d="m14.68,32.75c1.96,-3.38 3.12,-7.24 5.57,-10.27c2.45,-3.04 6.91,-5.05 10.29,-3.08c2.24,1.3 3.34,3.94 5.32,5.61c2.38,2.01 5.79,2.38 8.85,1.85c3.07,-0.52 5.94,-1.84 8.88,-2.88c1.17,-0.42 2.47,-0.79 3.64,-0.36c1.33,0.49 2.13,1.9 3.39,2.55c1.24,0.65 2.73,0.47 4.12,0.29c3.7,-0.5 7.41,-1.01 11.12,-1.51" id="svg_26" stroke="#010101" stroke-linecap="round" stroke-linejoin="round" stroke-width="1.5"/>
   <path d="m373.68,54.08c38.62,2.14 77.33,2.61 116,1.41c-2.78,-0.65 -4.39,-3.09 -5.27,-5.38c-2.64,-6.86 0.96,-16.7 5.72,-22.3c-38.97,2.89 -78.37,7.94 -116.28,12.89c-4.78,1.1 -4.96,7.34 -3.77,10.84c0.44,1.3 1.32,2.42 3.6,2.55l0,-0.01z" fill="#ff5656" id="svg_27" stroke="#010101" stroke-linecap="round" stroke-linejoin="round" stroke-width="1.5"/>
   <path d="m483.59,31.94c2.49,-4.39 6.6,-4.69 9.11,-3.96c6.94,2.01 6.35,16.13 3.93,22.61c-0.89,2.39 -2.57,4.9 -5.12,5.15c-2.32,0.23 -5.86,-0.56 -7.23,-2.46c-4.28,-5.96 -5.18,-13.41 -0.69,-21.34l0,0z" fill="#FF8B37" id="svg_28" stroke="#010101" stroke-linecap="round" stroke-linejoin="round" stroke-width="1.5"/>
   <path d="m486.8,34.92c1.41,-3.06 3.75,-3.27 5.18,-2.76c3.94,1.4 3.61,11.22 2.23,15.73c-0.51,1.67 -1.46,3.41 -2.91,3.59c-1.32,0.16 -3.33,-0.39 -4.11,-1.72c-2.43,-4.14 -2.95,-9.33 -0.39,-14.84l0,0z" fill="white" id="svg_29" stroke="#010101" stroke-linecap="round" stroke-linejoin="round" stroke-width="1.5"/>
   <path d="m469.57,73.57c1.48,-3.22 2.77,-10.4 1.59,-17.43c-0.1,-0.19 -14.9,-0.14 -21.71,-0.36c-0.85,-1.36 -1.74,-5.12 -2.49,-6.33c-0.29,-0.47 -0.61,-0.94 -1.08,-1.22c-0.83,-0.49 -1.96,-0.23 -2.68,0.42c-0.71,0.65 -1.07,1.61 -1.23,2.56c-0.34,2.01 0.84,7.55 1.26,9.53c0.75,3.53 1.52,7.59 3.5,10.54c5.01,0.33 22.84,2.28 22.84,2.28l0,0.01z" fill="white" id="svg_30" stroke="#010101" stroke-linecap="round" stroke-linejoin="round" stroke-width="1.5"/>
   <path d="m517.74,166.29c-18.42,1.43 -35.89,13.33 -43.07,30.36c-7.18,17.02 -3.18,38.41 10.32,51.01c5.6,5.23 12.51,8.9 19.7,11.53c8.48,3.11 17.56,4.87 26.57,4.25c9.01,-0.61 17.97,-3.7 24.93,-9.46c12,-9.94 16.57,-26.87 14.55,-42.32c-2.71,-20.65 -22.47,-48.11 -53,-45.37z" fill="#000000" id="svg_31" stroke="#010101" stroke-linecap="round" stroke-linejoin="round" stroke-width="1.5" transform="matrix(1 0 0 1 0 0)"/>
   <path d="m518.63,178.77c-13.69,1.06 -26.67,9.91 -32,22.55c-5.33,12.65 -2.36,28.53 7.67,37.9c4.15,3.89 9.29,6.61 14.63,8.57c6.3,2.31 13.04,3.61 19.74,3.15c6.7,-0.45 13.35,-2.75 18.52,-7.03c8.91,-7.38 12.31,-19.96 10.81,-31.44c-2.01,-15.34 -16.69,-35.74 -39.37,-33.7l0,0z" fill="white" id="svg_32" stroke="#010101" stroke-linecap="round" stroke-linejoin="round" stroke-width="1.5" transform="matrix(1 0 0 1 0 0)"/>
   <path d="m519.84,196.44c-6.76,0.53 -13.17,4.9 -15.8,11.14c-2.64,6.25 -1.17,14.1 3.78,18.72c2.06,1.92 4.59,3.27 7.23,4.23c3.11,1.15 6.44,1.79 9.75,1.56c3.31,-0.22 6.59,-1.35 9.15,-3.47c4.4,-3.65 6.08,-9.86 5.33,-15.53c-0.99,-7.57 -8.24,-17.65 -19.44,-16.65l0,0z" fill="#ff5656" id="svg_33" stroke="#010101" stroke-linecap="round" stroke-linejoin="round" stroke-width="1.5"/>
   <path d="m521.2,208.2c-2.12,0.17 -4.12,1.52 -4.95,3.48c-0.82,1.95 -0.36,4.4 1.19,5.85c0.64,0.6 1.44,1.02 2.26,1.31c0.98,0.36 2.01,0.56 3.05,0.5c1.03,-0.07 2.06,-0.43 2.86,-1.09c1.38,-1.14 1.9,-3.07 1.67,-4.85c-0.31,-2.37 -2.59,-5.52 -6.09,-5.19l0,0z" fill="white" id="svg_34" stroke="#010101" stroke-linecap="round" stroke-linejoin="round" stroke-width="1.5" transform="matrix(1 0 0 1 0 0)"/>
   <path d="m522.11,213.03c18.5,-12.66 37.23,-24.99 56.18,-36.97" id="svg_35" stroke="#010101" stroke-linecap="round" stroke-linejoin="round" stroke-width="1.5"/>
   <path d="m566.58,183.24c1.2,-3.3 2.29,-6.64 3.27,-10c0.49,0.17 6.52,-4.28 15.12,-8.49c-0.39,1.97 -0.78,6.44 -1.18,8.41c2.1,0.63 4.17,1.34 6.21,2.14c-2.9,3.87 -14.28,9.57 -14.28,9.57c0,0 -5.54,-1.18 -9.14,-1.63l0,0z" fill="#ff7f00" id="svg_36" stroke="#010101" stroke-linecap="round" stroke-linejoin="round" stroke-width="1.5"/>
   <path d="m414.78,289.86l-253.52,0c-3.03,0 -5.49,2.46 -5.49,5.49l0,0c0,3.03 2.46,5.48 5.49,5.48l253.52,0c3.03,0 5.49,-2.45 5.49,-5.48l0,0c0,-3.03 -2.46,-5.49 -5.49,-5.49z" fill="#7f7f7f" id="svg_37" stroke="#010101" stroke-linecap="round" stroke-linejoin="round" stroke-width="1.5"/>
   <path d="m267.44,289.39c-1.69,0.74 -3.27,1.82 -4.32,3.34c-1.05,1.52 -1.51,3.5 -0.94,5.26c0.57,1.75 2.28,3.15 4.13,3.09" id="svg_38" stroke="#010101" stroke-linecap="round" stroke-linejoin="round" stroke-width="1.5"/>
   <path d="m332.99,289.75c0.38,1.89 0.93,4.02 2.63,4.95c0.98,0.52 2.14,0.53 3.25,0.53c6.56,-0.04 13.13,-0.07 19.7,-0.1c0.46,0 0.93,0 1.36,-0.17c1.7,-0.66 1.6,-3.13 2.69,-4.59" id="svg_39" stroke="#010101" stroke-linecap="round" stroke-linejoin="round" stroke-width="1.5"/>
   <path d="m449.46,55.78c0.33,1.3 0.84,2.34 1.12,3.63c2.36,-0.79 5.04,-0.54 7.21,0.67c2.17,1.21 3.79,3.37 4.36,5.79" id="svg_42" stroke="#010101" stroke-linecap="round" stroke-linejoin="round" stroke-width="1.5"/>
   <path d="m302.54,142.59c-0.64,0.2 -0.96,1.05 -0.65,1.65c0.31,0.59 1.14,0.83 1.74,0.53c0.6,-0.3 0.91,-1.09 0.62,-1.7c-0.28,-0.6 -1.06,-0.68 -1.71,-0.48z" fill="#010101" id="svg_45" stroke="#010101" stroke-linecap="round" stroke-linejoin="round" stroke-width="1.5"/>
   <path d="m294.79,169.08c-0.64,0.2 -0.96,1.05 -0.65,1.65c0.31,0.59 1.14,0.83 1.74,0.53c0.6,-0.3 0.91,-1.09 0.62,-1.69c-0.28,-0.61 -1.06,-0.69 -1.71,-0.49z" fill="#010101" id="svg_46" stroke="#010101" stroke-linecap="round" stroke-linejoin="round" stroke-width="1.5"/>
   <path d="m287.49,193.44c-0.64,0.21 -0.95,1.05 -0.64,1.65c0.3,0.59 1.13,0.83 1.73,0.53c0.6,-0.3 0.91,-1.09 0.62,-1.69c-0.28,-0.61 -1.06,-0.69 -1.71,-0.49z" fill="#010101" id="svg_47" stroke="#010101" stroke-linecap="round" stroke-linejoin="round" stroke-width="1.5"/>
   <path d="m280.56,217.71c-0.64,0.2 -0.96,1.05 -0.65,1.64c0.31,0.6 1.14,0.84 1.74,0.54c0.6,-0.3 0.91,-1.1 0.62,-1.7c-0.28,-0.6 -1.07,-0.68 -1.71,-0.48z" fill="#010101" id="svg_48" stroke="#010101" stroke-linecap="round" stroke-linejoin="round" stroke-width="1.5"/>
  </g>
 </g>
</svg>